<svg width="50" height="50" viewBox="0 0 50 50" fill="none" xmlns="http://www.w3.org/2000/svg">
<path fill-rule="evenodd" clip-rule="evenodd" d="M42.8867 15.007L41.4526 16.4412C38.3452 13.7327 34.3609 12.2179 30.2183 12.2179C27.4291 12.2179 24.6414 12.935 22.2512 14.2093L28.306 8.15441C28.7841 8.47262 29.3413 8.63247 29.9 8.63247C30.6963 8.63247 31.4941 8.31426 32.1305 7.67635C33.4048 6.40204 33.4048 4.40914 32.1305 3.13482C31.4926 2.49692 30.6963 2.17871 29.9 2.17871C29.1038 2.17871 28.306 2.49692 27.6696 3.13482C26.6343 4.25078 26.4745 5.84331 27.1916 7.03845L19.5427 14.6873L18.1085 13.2532L14.2049 17.1568L15.639 18.591L7.8303 26.3997C7.35224 26.0815 6.79501 25.9217 6.23628 25.9217C5.44002 25.9217 4.64226 26.2399 4.00585 26.8778C2.73153 28.1521 2.73153 30.145 4.00585 31.4193C4.64375 31.9765 5.44002 32.2962 6.23628 32.2962C7.03254 32.2962 7.8303 31.978 8.46671 31.3401C9.502 30.3048 9.66185 28.7108 8.94476 27.4365L14.9996 21.3816C11.8131 27.5172 12.5302 35.1661 17.2301 40.583L15.7959 42.0964L19.7802 46L23.6838 42.0964L19.7802 38.1928L18.4252 39.5477C13.8045 34.1293 13.5655 26.322 17.4691 20.5854L18.107 21.2233L22.0913 17.3196L21.3742 16.6817C23.9243 14.8487 27.0317 13.8926 30.2183 13.8926C33.9635 13.8926 37.4683 15.2476 40.3366 17.6378L38.9024 18.9928L42.8867 22.8965L46.7904 18.9928L42.8867 15.0085V15.007ZM21.4534 42.0964L19.7802 43.7696L18.107 42.0964L19.7802 40.4232L21.4534 42.0964ZM28.7841 4.33006C29.1023 4.01185 29.5012 3.852 29.9001 3.852C30.2989 3.852 30.6963 4.01185 31.016 4.33006C31.6539 4.96797 31.6539 5.92408 31.016 6.56049C30.6978 6.8787 30.2989 7.03855 29.9001 7.03855C29.5012 7.03855 29.1038 6.8787 28.7841 6.56049C28.1462 6.00326 28.1462 4.96647 28.7841 4.33006ZM7.35072 30.2242C7.03252 30.5424 6.63364 30.7023 6.23476 30.7023C5.83589 30.7023 5.4385 30.5424 5.1188 30.2242C4.8006 29.9852 4.64075 29.5863 4.64075 29.1083C4.64075 28.7094 4.8006 28.312 5.1188 27.9923C5.43701 27.6726 5.83589 27.5142 6.23476 27.5142C6.63364 27.5142 7.03102 27.6741 7.35072 27.9923C7.98863 28.6302 7.98863 29.6655 7.35072 30.2227V30.2242ZM18.0278 18.9899L16.3547 17.3167L18.0278 15.6435L19.701 17.3167L18.0278 18.9899ZM42.8867 20.663L41.2135 18.9898L42.8867 17.3166L44.5599 18.9898L42.8867 20.663Z" fill="#333333"/>
</svg>
